<?xml version="1.0" standalone="no"?>
<!DOCTYPE svg PUBLIC "-//W3C//DTD SVG 20010904//EN"
 "http://www.w3.org/TR/2001/REC-SVG-20010904/DTD/svg10.dtd">
<svg version="1.0" xmlns="http://www.w3.org/2000/svg"
 width="202.000000pt" height="184.000000pt" viewBox="0 0 202.000000 184.000000"
 preserveAspectRatio="xMidYMid meet">

<g transform="translate(0.000000,184.000000) scale(0.100000,-0.100000)"
fill="#000000" stroke="none">
<path d="M259 1773 c-63 -164 -86 -357 -58 -480 12 -49 11 -49 -38 -129 -44
-70 -58 -97 -94 -179 -17 -41 -39 -144 -39 -188 0 -145 83 -301 212 -399 91
-69 90 -69 85 -92 -3 -11 -26 -74 -51 -139 -25 -66 -46 -123 -46 -127 0 -5
281 -9 625 -10 344 0 625 3 625 7 1 37 33 330 45 413 29 197 57 281 104 324
25 23 67 24 88 3 15 -14 19 -13 44 14 29 31 63 37 88 15 14 -12 19 -12 34 -1
18 13 18 16 1 87 -20 85 -76 213 -130 293 l-37 56 13 67 c24 128 -5 348 -63
470 -13 28 -26 28 -107 -1 -105 -37 -310 -183 -310 -221 0 -7 12 -17 28 -24
l27 -12 -33 5 c-281 40 -367 40 -614 -1 l-33 -5 28 16 c15 8 27 19 27 24 0 5
-19 26 -42 48 -80 73 -204 150 -285 176 -70 23 -82 22 -94 -10z m126 -212 l48
-85 -37 -29 c-21 -17 -57 -55 -82 -84 -32 -40 -44 -50 -44 -35 0 23 77 141 97
149 11 4 10 11 -6 37 -20 33 -71 169 -71 189 0 15 36 -39 95 -142z m1235 112
c-16 -53 -38 -110 -59 -150 l-20 -40 30 -29 c32 -30 79 -105 79 -125 0 -6 -35
24 -77 67 -42 44 -76 85 -74 92 1 7 25 52 53 100 69 118 84 137 68 85z m-995
-585 c50 -51 85 -139 65 -163 -7 -8 -25 -15 -40 -15 -24 0 -30 6 -40 38 -19
60 -59 122 -78 122 -25 0 -77 -57 -96 -105 -19 -44 -31 -55 -63 -55 -33 0 -36
15 -13 68 35 82 121 151 189 152 27 0 42 -9 76 -42z m869 12 c45 -40 94 -153
76 -175 -7 -8 -25 -15 -39 -15 -24 0 -30 8 -50 55 -26 62 -57 105 -75 105 -22
0 -68 -52 -89 -100 -11 -25 -25 -48 -31 -52 -18 -12 -56 -9 -62 5 -14 37 68
152 135 187 54 28 94 25 135 -10z m-654 -235 c0 -65 64 -69 90 -6 21 51 45 49
74 -6 27 -54 86 -41 86 18 0 35 16 46 29 20 17 -31 13 -66 -10 -95 -26 -34
-96 -37 -124 -6 -17 19 -18 19 -43 0 -33 -27 -95 -27 -122 0 -22 22 -28 88 -8
108 17 17 28 5 28 -33z"/>
<path d="M1883 754 c-20 -20 -28 -23 -34 -12 -5 7 -9 16 -9 21 0 4 -11 7 -23
7 -25 0 -49 -22 -61 -54 -6 -19 -7 -18 -29 1 -34 31 -45 35 -68 23 -56 -31
-89 -196 -125 -628 l-7 -83 166 3 c162 3 165 3 186 28 88 106 137 348 111 543
-13 104 -26 146 -48 165 -22 17 -29 15 -59 -14z m-55 -98 c4 -36 -12 -54 -33
-36 -18 15 -20 41 -3 58 18 18 33 9 36 -22z m107 3 c4 -5 4 -21 1 -35 -5 -19
-12 -25 -29 -22 -27 4 -33 30 -12 52 19 19 31 20 40 5z m-225 -14 c17 -20 8
-50 -14 -50 -23 0 -41 27 -33 49 8 20 31 21 47 1z m90 -96 c8 0 29 3 46 7 26
5 35 2 48 -17 31 -45 16 -93 -41 -131 -45 -29 -80 -23 -124 21 -43 42 -49 72
-23 110 13 19 22 22 48 17 17 -4 38 -7 46 -7z"/>
</g>
</svg>
